<svg height="20" viewBox="0 0 20 20" width="20" xmlns="http://www.w3.org/2000/svg"><path d="m7.33642509 8.11764706c0-1.5010142 1.19442426-2.71805274 2.66754751-2.71805274 1.4731233 0 2.6675475 1.21703854 2.6675475 2.71805274s-1.1944242 2.71805274-2.6675475 2.71805274c-1.47312325 0-2.66754751-1.21703854-2.66754751-2.71805274m2.67551031-6.11764706h-.01592563c-3.30457378 0-5.99600977 2.74239351-5.99600977 6.11764706 0 1.71196754 1.33775517 4.13793104 2.64365902 6.11764704.7564687 1.1440162 1.5686772 2.2393509 2.42866266 3.3022313.2229592.2920892.57332365.4624746.93165092.4624746.3583273 0 .7007289-.1703854.9236881-.4624746.8599855-1.0628804 1.672194-2.1663286 2.4286627-3.3103449 1.3059038-1.9716024 2.643659-4.40567949 2.643659-6.11764703.0079628-3.35902637-2.6834732-6.10141988-5.988047-6.10953347" fill="#5fc6c2"/></svg>